<?xml version="1.0" encoding="iso-8859-1"?>
<!-- Uploaded to: SVG Repo, www.svgrepo.com, Generator: SVG Repo Mixer Tools -->
<svg height="800px" width="800px" version="1.1" id="Layer_1" xmlns="http://www.w3.org/2000/svg" xmlns:xlink="http://www.w3.org/1999/xlink" 
	 viewBox="0 0 512 512" xml:space="preserve">
<path style="fill:#FFBE75;" d="M476.882,339.487c12.968,12.982,20.992,30.909,20.992,50.7c0,39.526-31.982,71.593-71.494,71.706
	V318.496C446.086,318.552,463.942,326.562,476.882,339.487z"/>
<path style="fill:#5A5D6F;" d="M426.379,318.496v143.398c-0.071,0-0.127,0-0.198,0H393.38c-13.463,0-24.368-10.92-24.368-24.368
	v-94.662c0-13.463,10.906-24.368,24.368-24.368h32.802C426.252,318.496,426.309,318.496,426.379,318.496z"/>
<path style="fill:#9DA6BA;" d="M387.532,112.178l-0.678,0.551l-8.278,8.278c-15.172,15.172-38.989,17.842-56.887,6.004
	c-18.845-12.445-41.419-19.692-65.688-19.692c-12.121,0-23.831,1.808-34.864,5.17c-11.033,3.362-21.387,8.292-30.796,14.508
	c-17.715,11.711-41.292,9.097-56.464-5.778l-8.66-8.49l-0.72-0.579c3.489-4.224,7.162-8.264,11.033-12.135
	C166.353,69.177,208.959,50.107,256,50.107C308.96,50.107,356.284,74.277,387.532,112.178z"/>
<path style="fill:#5A5D6F;" d="M142.988,342.864v94.661c0,13.448-10.906,24.368-24.368,24.368H85.818c-0.071,0-0.127,0-0.198,0
	V318.496c0.071,0,0.127,0,0.198,0h32.802C132.083,318.496,142.988,329.401,142.988,342.864z"/>
<path style="fill:#FFBE75;" d="M85.621,318.496v143.398c-39.512-0.113-71.494-32.18-71.494-71.706
	c0-19.791,8.024-37.718,20.992-50.7C48.058,326.562,65.914,318.552,85.621,318.496z"/>
<path d="M512,390.187c0-22.915-8.922-44.466-25.135-60.696c-12.779-12.765-28.889-20.991-46.359-23.915v-85.091
	c0-42.727-14.942-84.382-42.074-117.294c-35.216-42.714-87.131-67.212-142.43-67.212c-49.292,0-95.624,19.195-130.461,54.046
	c-4.162,4.162-8.176,8.578-11.943,13.135c-27.151,32.918-42.104,74.585-42.104,117.326v85.091
	c-17.47,2.923-33.583,11.153-46.37,23.926C8.922,345.724,0,367.276,0,390.187c0,47.192,38.392,85.697,85.621,85.832h32.999
	c21.225,0,38.495-17.27,38.495-38.495v-94.662c0-21.225-17.27-38.495-38.495-38.495H99.747v-83.883
	c0-31.071,9.353-61.454,26.53-87.061c19.978,17.633,49.693,20.006,71.85,5.358c8.419-5.562,17.547-9.86,27.127-12.782
	c9.922-3.024,20.269-4.557,30.748-4.557c20.69,0,40.712,6.001,57.895,17.349c9.843,6.509,21.125,9.688,32.378,9.688
	c14.217,0,28.38-5.086,39.541-14.922c17.12,25.583,26.438,55.911,26.438,86.926v83.883h-18.872
	c-21.225,0-38.495,17.27-38.495,38.495v94.662c0,21.225,17.27,38.495,38.495,38.495h32.802h0.237
	C473.61,475.886,512,437.381,512,390.187z M118.621,332.622c5.648,0,10.242,4.594,10.242,10.242v94.661
	c0,5.648-4.594,10.242-10.242,10.242h-32.96c-31.656-0.09-57.409-25.919-57.409-57.58c0-15.372,5.988-29.832,16.85-40.705
	c7.414-7.405,16.494-12.543,26.392-15.067v40.248c0,7.801,6.326,14.126,14.126,14.126c7.801,0,14.126-6.326,14.126-14.126v-42.04
	H118.621z M329.473,115.224C307.649,100.811,282.241,93.192,256,93.192c-13.272,0-26.387,1.947-38.983,5.785
	c-12.181,3.712-23.776,9.174-34.467,16.236c-11.858,7.837-27.938,6.227-38.437-3.769c0.469-0.482,0.934-0.968,1.407-1.442
	C175.021,80.487,214.258,64.233,256,64.233c42.508,0,82.655,17.099,112.013,47.311C357.507,121.547,341.438,123.136,329.473,115.224
	z M383.14,437.525v-94.662c0-5.648,4.594-10.242,10.242-10.242h18.872v115.145h-18.872
	C387.734,447.767,383.14,443.173,383.14,437.525z M440.506,445.959V334.415c9.897,2.524,18.976,7.659,26.381,15.056
	c10.873,10.884,16.861,25.344,16.861,40.717C483.747,416.967,465.32,439.571,440.506,445.959z"/>
<path d="M85.621,398.913c-7.801,0-14.126,6.326-14.126,14.126v4.944c0,7.801,6.326,14.126,14.126,14.126s14.126-6.326,14.126-14.126
	v-4.944C99.747,405.239,93.423,398.913,85.621,398.913z"/>
</svg>